<svg version="1.1" xmlns="http://www.w3.org/2000/svg" viewBox="0 0 951.1999816894531 504.7999725341797" width="2853.5999450683594" height="1514.399917602539">
  <!-- svg-source:excalidraw -->
  
  <defs>
    <style>
      @font-face {
        font-family: "Virgil";
        src: url("https://excalidraw.com/Virgil.woff2");
      }
      @font-face {
        font-family: "Cascadia";
        src: url("https://excalidraw.com/Cascadia.woff2");
      }
    </style>
  </defs>
  <rect x="0" y="0" width="951.1999816894531" height="504.7999725341797" fill="#ffffff"></rect><g stroke-linecap="round" transform="translate(105.99984741210943 32.4000244140625) rotate(0 99.60000610351562 56.40000915527344)"><path d="M107.14 0.38 C120.13 0.22, 134.18 3.68, 145.94 7.13 C157.7 10.58, 169.43 15.31, 177.71 21.09 C186 26.87, 192.32 34.25, 195.66 41.81 C198.99 49.38, 199.92 58.75, 197.72 66.49 C195.51 74.24, 190 81.92, 182.42 88.3 C174.85 94.67, 163.58 100.79, 152.27 104.75 C140.96 108.72, 127.96 110.98, 114.55 112.08 C101.14 113.19, 84.91 113.31, 71.8 111.4 C58.7 109.48, 46.19 105.49, 35.94 100.59 C25.69 95.69, 16.32 89.14, 10.33 82.02 C4.35 74.89, 0.7 65.64, 0.03 57.83 C-0.64 50.01, 1.37 41.94, 6.32 35.12 C11.26 28.31, 19.84 22.25, 29.69 16.94 C39.55 11.63, 52.03 6.03, 65.43 3.28 C78.83 0.52, 101.99 0.56, 110.11 0.4 C118.22 0.24, 114.32 1.29, 114.13 2.32 M111.81 0.97 C124.87 0.93, 141.57 4.36, 153.3 8.36 C165.02 12.36, 175.02 18.88, 182.18 25 C189.33 31.12, 193.78 37.78, 196.21 45.1 C198.63 52.41, 199.48 61.36, 196.74 68.88 C193.99 76.4, 187.98 84.15, 179.72 90.21 C171.47 96.28, 159.44 101.62, 147.21 105.27 C134.98 108.93, 120.05 111.31, 106.33 112.14 C92.61 112.96, 77.66 112.84, 64.9 110.22 C52.13 107.61, 39.22 101.63, 29.74 96.43 C20.25 91.24, 13.01 85.9, 7.99 79.05 C2.97 72.19, -0.91 63.35, -0.38 55.31 C0.15 47.27, 5.41 37.57, 11.18 30.83 C16.95 24.08, 24.08 19.39, 34.21 14.83 C44.35 10.28, 58.89 6.09, 72.01 3.5 C85.12 0.92, 106.13 -0.59, 112.91 -0.67 C119.7 -0.76, 112.8 1.76, 112.72 2.99" stroke="#000000" stroke-width="1" fill="none"></path></g><g transform="translate(116.09985351562506 76.30003356933594) rotate(0 89.5 12.5)"><text x="89.5" y="18" font-family="Virgil, Segoe UI Emoji" font-size="20px" fill="#000000" text-anchor="middle" style="white-space: pre;" direction="ltr">Think about your </text></g><g transform="translate(153.99990844726568 100.19996643066406) rotate(0 42.5 12.5)"><text x="0" y="18" font-family="Virgil, Segoe UI Emoji" font-size="20px" fill="#000000" text-anchor="start" style="white-space: pre;" direction="ltr">Business</text></g><g stroke-linecap="round" transform="translate(334.7999572753907 50.80000305175781) rotate(0 75.60000610351562 35.20000457763672)"><path d="M67.71 0.98 C78.7 -0.04, 93.91 0.63, 105.02 2.53 C116.13 4.42, 126.9 8.27, 134.39 12.36 C141.89 16.44, 147.74 21.5, 149.97 27.03 C152.19 32.56, 151.05 40.15, 147.74 45.53 C144.43 50.91, 138.14 55.48, 130.09 59.32 C122.04 63.16, 110.29 66.76, 99.44 68.58 C88.58 70.41, 76.41 71.05, 64.96 70.28 C53.51 69.51, 40.31 67.14, 30.73 63.95 C21.15 60.75, 12.5 56.06, 7.47 51.1 C2.43 46.14, 0.05 39.83, 0.52 34.2 C0.99 28.57, 4.78 21.92, 10.29 17.3 C15.79 12.68, 21.56 9.31, 33.54 6.47 C45.51 3.62, 72.04 1.05, 82.14 0.23 C92.23 -0.6, 94.19 0.89, 94.08 1.51 M81.41 0.74 C92.63 0.56, 105.37 2.92, 115.5 5.81 C125.63 8.7, 136.41 13.31, 142.19 18.09 C147.97 22.87, 149.97 29.21, 150.17 34.5 C150.37 39.8, 148.49 45.07, 143.39 49.86 C138.29 54.64, 129.01 59.97, 119.58 63.21 C110.16 66.44, 98.05 68.53, 86.86 69.26 C75.68 69.99, 63.61 69.22, 52.46 67.6 C41.31 65.97, 27.98 63.36, 19.97 59.52 C11.96 55.68, 7.31 49.73, 4.42 44.57 C1.53 39.4, 0.33 33.74, 2.64 28.51 C4.94 23.28, 11.09 17.25, 18.25 13.17 C25.42 9.09, 35.07 6.23, 45.62 4.04 C56.17 1.84, 75.43 0.72, 81.57 0.01 C87.72 -0.7, 82.69 -0.96, 82.48 -0.23" stroke="#000000" stroke-width="1" fill="none"></path></g><g transform="translate(377.1999816894532 69.80000305175781) rotate(0 34 12.5)"><text x="0" y="18" font-family="Virgil, Segoe UI Emoji" font-size="20px" fill="#000000" text-anchor="start" style="white-space: pre;" direction="ltr">Inquire</text></g><g stroke-linecap="round" transform="translate(508.3999328613282 34) rotate(0 94.4000244140625 48.79999542236328)"><path d="M70.46 0.97 C82.61 -1.61, 99.68 -1.6, 112.99 0.01 C126.3 1.62, 139.54 6.3, 150.31 10.63 C161.08 14.96, 171.1 19.98, 177.63 26.01 C184.15 32.05, 189.07 39.57, 189.46 46.83 C189.86 54.09, 185.77 62.87, 180 69.57 C174.23 76.27, 165.18 82.48, 154.86 87.04 C144.53 91.59, 131.13 95.4, 118.04 96.9 C104.94 98.41, 89.81 97.42, 76.29 96.05 C62.77 94.68, 47.72 92.68, 36.92 88.67 C26.12 84.65, 17.71 78.48, 11.48 71.95 C5.26 65.41, -0.02 56.75, -0.41 49.44 C-0.8 42.14, 3.54 34.49, 9.15 28.1 C14.75 21.72, 21.97 15.8, 33.24 11.12 C44.5 6.44, 68.26 1.55, 76.72 0.01 C85.19 -1.54, 83.7 1.02, 84.02 1.85 M50.28 4.6 C60.84 0.77, 76.09 -1.21, 89.41 -1.36 C102.72 -1.52, 117.35 0.83, 130.17 3.68 C142.99 6.53, 157 10.5, 166.34 15.73 C175.67 20.95, 182.51 28.22, 186.21 35.03 C189.9 41.85, 191.08 49.3, 188.48 56.61 C185.87 63.93, 178.61 73.07, 170.56 78.92 C162.51 84.77, 152.06 88.74, 140.17 91.71 C128.28 94.68, 113.07 96.64, 99.24 96.75 C85.4 96.86, 69.9 94.89, 57.16 92.38 C44.42 89.87, 31.94 86.7, 22.79 81.7 C13.65 76.7, 6.03 69.31, 2.3 62.38 C-1.43 55.45, -2.39 47.04, 0.42 40.13 C3.22 33.22, 11.17 26.59, 19.14 20.92 C27.11 15.25, 43.13 8.55, 48.23 6.1 C53.34 3.65, 48.55 5.67, 49.77 6.23" stroke="#000000" stroke-width="1" fill="none"></path></g><g transform="translate(537.9999084472656 54.59999084472656) rotate(0 63 12.5)"><text x="0" y="18" font-family="Virgil, Segoe UI Emoji" font-size="20px" fill="#000000" text-anchor="start" style="white-space: pre;" direction="ltr">Discuss your</text></g><g transform="translate(568.3998718261719 90.60000610351562) rotate(0 36 12.5)"><text x="0" y="18" font-family="Virgil, Segoe UI Emoji" font-size="20px" fill="#000000" text-anchor="start" style="white-space: pre;" direction="ltr">Target</text></g><g stroke-linecap="round"><g transform="translate(277.2409145424286 46.53919815444803) rotate(0 40.84758934703876 -12.425415150718564)"><path d="M-0.68 -0.01 C8.14 -3.72, 38.32 -22.72, 52.16 -22.94 C66 -23.16, 77.34 -4.94, 82.38 -1.32 M1.16 -1.06 C9.98 -5.09, 38.33 -25.03, 51.74 -24.86 C65.15 -24.68, 76.47 -4.13, 81.62 0.01" stroke="#000000" stroke-width="1" fill="none"></path></g><g transform="translate(277.2409145424286 46.53919815444803) rotate(0 40.84758934703876 -12.425415150718564)"><path d="M64.94 -7.7 C69.47 -6.97, 72.8 -4.79, 81.82 -0.5 M64.45 -9.78 C71.92 -6.51, 78.17 -1.99, 80.68 0" stroke="#000000" stroke-width="1" fill="none"></path></g><g transform="translate(277.2409145424286 46.53919815444803) rotate(0 40.84758934703876 -12.425415150718564)"><path d="M74.81 -16.24 C76.97 -13.55, 77.97 -9.35, 81.82 -0.5 M74.33 -18.32 C77.93 -11.81, 80.37 -4, 80.68 0" stroke="#000000" stroke-width="1" fill="none"></path></g></g><g stroke-linecap="round"><g transform="translate(462.79989624023443 113.99996948242188) rotate(0 33.45828530757689 14.92401064397211)"><path d="M0.2 0.3 C6.07 5.28, 24.32 26.29, 35.21 28.89 C46.11 31.48, 60.33 17.84, 65.59 15.88 M-1.15 -0.58 C4.62 4.62, 23.16 27.17, 34.69 30.05 C46.23 32.93, 62.64 18.65, 68.07 16.72" stroke="#000000" stroke-width="1" fill="none"></path></g><g transform="translate(462.79989624023443 113.99996948242188) rotate(0 33.45828530757689 14.92401064397211)"><path d="M57.41 31.08 C59.42 24.74, 62.49 22.48, 68.57 16.82 M56.85 29.29 C61.08 25.32, 64.73 20.73, 67.86 17.42" stroke="#000000" stroke-width="1" fill="none"></path></g><g transform="translate(462.79989624023443 113.99996948242188) rotate(0 33.45828530757689 14.92401064397211)"><path d="M51.53 20.87 C55.23 17.61, 60.08 18.45, 68.57 16.82 M50.96 19.08 C57.27 18.58, 62.92 17.47, 67.86 17.42" stroke="#000000" stroke-width="1" fill="none"></path></g></g><g stroke-linecap="round"><g transform="translate(629.9999084472656 128.40000915527344) rotate(0 47.763927427004774 26.64053527436866)"><path d="M0.98 0.64 C8.23 3.28, 27.06 6.47, 42.81 15.26 C58.56 24.04, 86.59 47.23, 95.49 53.35 M0.04 -0.07 C7.16 2.72, 25.87 7.61, 41.66 16.2 C57.45 24.78, 85.55 45.34, 94.76 51.46" stroke="#000000" stroke-width="1" fill="none"></path></g><g transform="translate(629.9999084472656 128.40000915527344) rotate(0 47.763927427004774 26.64053527436866)"><path d="M66.81 43.19 C70.79 45.55, 81.1 48.61, 93.98 51.85 M66.09 44.66 C74.35 45.76, 84.02 48.29, 94.38 51.3" stroke="#000000" stroke-width="1" fill="none"></path></g><g transform="translate(629.9999084472656 128.40000915527344) rotate(0 47.763927427004774 26.64053527436866)"><path d="M78.49 26.32 C79.58 32.84, 87.08 39.96, 93.98 51.85 M77.78 27.79 C82.66 33.89, 88.85 41.44, 94.38 51.3" stroke="#000000" stroke-width="1" fill="none"></path></g></g><g stroke-linecap="round" transform="translate(589.1997985839844 186.8000030517578) rotate(0 163.60000610351562 71.19999694824219)"><path d="M226.55 5.92 C244.16 7.81, 260.28 12.74, 274.08 18 C287.89 23.27, 300.86 30.36, 309.39 37.52 C317.93 44.69, 322.93 52.96, 325.28 60.99 C327.64 69.02, 327.34 77.57, 323.51 85.7 C319.68 93.82, 312.28 102.68, 302.32 109.74 C292.36 116.8, 278.71 123.27, 263.76 128.06 C248.81 132.86, 230.38 136.23, 212.64 138.51 C194.91 140.78, 175.72 141.96, 157.34 141.72 C138.95 141.48, 119.76 139.96, 102.32 137.05 C84.88 134.14, 66.64 129.57, 52.7 124.25 C38.76 118.93, 27.09 112.33, 18.68 105.12 C10.27 97.9, 4.7 89.14, 2.22 80.97 C-0.25 72.79, -0.07 64.06, 3.81 56.05 C7.7 48.03, 15.44 39.62, 25.55 32.88 C35.65 26.13, 49.69 20.52, 64.45 15.58 C79.22 10.64, 96.44 5.95, 114.15 3.23 C131.85 0.52, 151.18 -1.16, 170.67 -0.7 C190.16 -0.24, 220.79 4.62, 231.09 5.98 C241.4 7.34, 233.88 6.19, 232.51 7.45 M156.41 -0.84 C173.87 -2.51, 194.88 0.11, 212.66 2.46 C230.43 4.8, 248.15 8.06, 263.07 13.23 C277.98 18.41, 292.08 26.71, 302.14 33.49 C312.19 40.28, 319.5 46.15, 323.38 53.94 C327.26 61.74, 327.85 72.19, 325.43 80.24 C323.02 88.3, 317.14 95.07, 308.87 102.28 C300.61 109.49, 289.6 117.85, 275.83 123.52 C262.05 129.18, 243.55 133.2, 226.23 136.29 C208.9 139.39, 190.53 141.69, 171.86 142.08 C153.19 142.48, 132.16 140.99, 114.21 138.67 C96.26 136.35, 78.9 132.95, 64.15 128.17 C49.41 123.38, 35.77 117.08, 25.72 109.98 C15.66 102.88, 8.06 93.37, 3.82 85.58 C-0.42 77.78, -2.25 71.05, 0.29 63.21 C2.83 55.38, 10.16 45.71, 19.05 38.56 C27.94 31.41, 40.31 25.93, 53.61 20.31 C66.91 14.69, 81.61 8.41, 98.85 4.82 C116.08 1.23, 147.7 -0.63, 157.04 -1.22 C166.37 -1.8, 154.75 -0.05, 154.87 1.31" stroke="#000000" stroke-width="1" fill="none"></path></g><g transform="translate(660.4000549316406 202.59999084472656) rotate(0 89.5 12.5)"><text x="0" y="18" font-family="Virgil, Segoe UI Emoji" font-size="20px" fill="#000000" text-anchor="start" style="white-space: pre;" direction="ltr">Goals, Objectives.</text></g><g transform="translate(621.1999206542969 234.59999084472656) rotate(0 129 12.5)"><text x="0" y="18" font-family="Virgil, Segoe UI Emoji" font-size="20px" fill="#000000" text-anchor="start" style="white-space: pre;" direction="ltr">Things you wanted to see</text></g><g transform="translate(664.3998718261719 267.4000701904297) rotate(0 85 12.5)"><text x="0" y="18" font-family="Virgil, Segoe UI Emoji" font-size="20px" fill="#000000" text-anchor="start" style="white-space: pre;" direction="ltr">In your websites.</text></g><g stroke-linecap="round"><g transform="translate(599.1549095350276 234.47557103429745) rotate(0 -38.84980124015635 -30.545236917293465)"><path d="M-0.2 0.25 C-5.39 -9.46, -18.66 -50.37, -31.38 -57.85 C-44.09 -65.33, -68.98 -46.95, -76.5 -44.63 M-1.76 -0.66 C-7.07 -10.8, -19.61 -52.72, -32.23 -59.85 C-44.86 -66.99, -70.12 -46.34, -77.5 -43.47" stroke="#000000" stroke-width="1" fill="none"></path></g><g transform="translate(599.1549095350276 234.47557103429745) rotate(0 -38.84980124015635 -30.545236917293465)"><path d="M-62.12 -61.02 C-66.28 -57.09, -71.33 -52.12, -76.84 -44.26 M-62.3 -61.98 C-68.07 -55.55, -72.99 -47.64, -78.35 -43.03" stroke="#000000" stroke-width="1" fill="none"></path></g><g transform="translate(599.1549095350276 234.47557103429745) rotate(0 -38.84980124015635 -30.545236917293465)"><path d="M-54.15 -47.23 C-60.58 -47.17, -67.86 -46.05, -76.84 -44.26 M-54.32 -48.19 C-63.1 -46.75, -70.91 -43.83, -78.35 -43.03" stroke="#000000" stroke-width="1" fill="none"></path></g></g><g stroke-linecap="round" transform="translate(383.5998840332032 185.99998474121094) rotate(0 84.4000244140625 52.80003356933594)"><path d="M117.48 3.19 C128.78 5.38, 139.95 12.69, 148.04 18.47 C156.13 24.26, 162.62 30.73, 166.02 37.91 C169.43 45.09, 170.59 53.94, 168.47 61.55 C166.35 69.16, 160.54 77.41, 153.32 83.58 C146.1 89.75, 135.99 94.9, 125.15 98.58 C114.32 102.26, 100.59 105.02, 88.31 105.66 C76.03 106.29, 62.53 105.27, 51.47 102.4 C40.41 99.52, 29.87 94.4, 21.93 88.41 C14 82.42, 7.38 73.99, 3.84 66.48 C0.3 58.97, -1.39 50.73, 0.67 43.36 C2.74 35.98, 8.97 28.27, 16.23 22.24 C23.5 16.21, 33.52 10.96, 44.27 7.17 C55.01 3.39, 67.76 -0.33, 80.71 -0.48 C93.66 -0.63, 114.09 4.9, 121.97 6.26 C129.86 7.61, 128.6 7.1, 128.04 7.66 M68.92 1.94 C80.28 -0.39, 95.5 -1.52, 107.36 0.37 C119.22 2.26, 130.8 8.07, 140.08 13.27 C149.36 18.47, 158.25 24.91, 163.06 31.59 C167.86 38.27, 169.63 45.63, 168.93 53.36 C168.22 61.08, 164.37 71.09, 158.82 77.94 C153.27 84.79, 145.5 90.25, 135.62 94.48 C125.74 98.71, 111.45 101.69, 99.54 103.31 C87.63 104.94, 75.75 105.89, 64.15 104.22 C52.56 102.55, 39.67 98.25, 29.98 93.29 C20.29 88.33, 10.79 81.74, 6.02 74.46 C1.25 67.18, 0.98 57.12, 1.38 49.59 C1.77 42.05, 2.9 35.79, 8.39 29.25 C13.87 22.72, 24.43 14.94, 34.3 10.38 C44.17 5.82, 62.02 3.17, 67.61 1.89 C73.19 0.61, 67.3 2.12, 67.79 2.69" stroke="#000000" stroke-width="1" fill="none"></path></g><g transform="translate(410.7999572753907 221.7999725341797) rotate(0 54 12.5)"><text x="0" y="18" font-family="Virgil, Segoe UI Emoji" font-size="20px" fill="#000000" text-anchor="start" style="white-space: pre;" direction="ltr">Be specific</text></g><g stroke-linecap="round" transform="translate(9.999999999999943 176.40000915527344) rotate(0 177.99995422363287 68.79998779296875)"><path d="M133.19 2.69 C150.02 -0.07, 172.64 -0.23, 192 0.2 C211.37 0.62, 231.75 2.36, 249.39 5.25 C267.04 8.14, 283.58 12.4, 297.86 17.54 C312.13 22.67, 325.68 29.55, 335.04 36.07 C344.4 42.59, 350.96 49.44, 354.02 56.68 C357.08 63.91, 356.53 72.18, 353.4 79.5 C350.26 86.81, 344.34 93.92, 335.22 100.57 C326.1 107.22, 312.95 114.07, 298.67 119.38 C284.39 124.7, 267.07 129.55, 249.54 132.47 C232 135.39, 212.54 136.35, 193.47 136.9 C174.39 137.45, 153.83 137.66, 135.09 135.77 C116.36 133.88, 97.4 129.61, 81.05 125.55 C64.69 121.49, 48.71 117.27, 36.96 111.41 C25.2 105.55, 16.56 97.53, 10.51 90.38 C4.46 83.24, 0.91 75.93, 0.64 68.53 C0.36 61.14, 2.82 53.09, 8.86 46.02 C14.9 38.96, 24.96 32.09, 36.88 26.17 C48.79 20.24, 62.86 14.68, 80.35 10.47 C97.84 6.26, 129.8 2.17, 141.82 0.93 C153.83 -0.32, 151.68 1.84, 152.43 2.98 M176.88 -1.1 C195.26 -2.22, 217.55 0.68, 235.65 3.4 C253.75 6.13, 270.22 10.74, 285.47 15.25 C300.72 19.76, 316.2 24.4, 327.15 30.48 C338.1 36.56, 346.5 44.66, 351.16 51.74 C355.81 58.83, 356.46 65.4, 355.08 72.99 C353.71 80.58, 350.58 90.18, 342.89 97.27 C335.2 104.36, 322.13 110.02, 308.95 115.54 C295.76 121.06, 280.49 126.67, 263.8 130.39 C247.11 134.12, 227.85 136.92, 208.82 137.89 C189.78 138.86, 168.68 137.82, 149.58 136.21 C130.48 134.61, 111.04 131.77, 94.23 128.28 C77.42 124.8, 61.91 120.65, 48.73 115.31 C35.56 109.96, 23.43 102.76, 15.19 96.22 C6.95 89.68, 0.85 83.22, -0.71 76.05 C-2.27 68.89, 0.95 60.77, 5.85 53.25 C10.74 45.73, 18.38 37.11, 28.65 30.93 C38.92 24.75, 52.53 20.61, 67.46 16.16 C82.39 11.71, 100.21 7.1, 118.23 4.25 C136.25 1.39, 165.69 -0.45, 175.57 -0.95 C185.44 -1.45, 177.45 -0.32, 177.46 1.23" stroke="#000000" stroke-width="1" fill="none"></path></g><g transform="translate(54.79992675781256 209.80003356933594) rotate(0 136.5 12.5)"><text x="0" y="18" font-family="Virgil, Segoe UI Emoji" font-size="20px" fill="#000000" text-anchor="start" style="white-space: pre;" direction="ltr">Discuss in Zoom if possible,</text></g><g transform="translate(85.19992065429693 242.6000213623047) rotate(0 103 12.5)"><text x="0" y="18" font-family="Virgil, Segoe UI Emoji" font-size="20px" fill="#000000" text-anchor="start" style="white-space: pre;" direction="ltr">to clarify your goals</text></g><g transform="translate(115.60000610351568 272.99989318847656) rotate(0 71.5 12.5)"><text x="0" y="18" font-family="Virgil, Segoe UI Emoji" font-size="20px" fill="#000000" text-anchor="start" style="white-space: pre;" direction="ltr">and objectives</text></g><g stroke-linecap="round"><g transform="translate(427.5998840332032 187.6000213623047) rotate(0 -64.0972109773744 -17.174744826825986)"><path d="M0.25 -1.16 C-8.81 -7.2, -33.62 -34.53, -54.96 -35.18 C-76.3 -35.83, -115.56 -10.22, -127.78 -5.06 M-1.08 0.84 C-10.16 -4.48, -34.14 -32.81, -55.36 -33.63 C-76.59 -34.45, -116.31 -9.17, -128.44 -4.07" stroke="#000000" stroke-width="1" fill="none"></path></g><g transform="translate(427.5998840332032 187.6000213623047) rotate(0 -64.0972109773744 -17.174744826825986)"><path d="M-109.99 -24.34 C-112.94 -20.17, -119.14 -15.48, -128.11 -4.99 M-107.43 -26.39 C-112.8 -19.54, -119.13 -13.58, -127.51 -3.16" stroke="#000000" stroke-width="1" fill="none"></path></g><g transform="translate(427.5998840332032 187.6000213623047) rotate(0 -64.0972109773744 -17.174744826825986)"><path d="M-100.62 -6.08 C-106.08 -6.48, -114.63 -6.37, -128.11 -4.99 M-98.06 -8.14 C-105.76 -6.15, -114.59 -5.07, -127.51 -3.16" stroke="#000000" stroke-width="1" fill="none"></path></g></g><g stroke-linecap="round" transform="translate(31.599945068359432 353.1999969482422) rotate(0 110 56.80000305175781)"><path d="M138.8 2.51 C152.78 3.62, 167.32 7.57, 178.67 12.26 C190.03 16.96, 200.21 23.85, 206.93 30.66 C213.64 37.47, 218.13 45.4, 218.95 53.1 C219.77 60.8, 216.93 69.54, 211.84 76.87 C206.74 84.2, 198.59 91.77, 188.39 97.09 C178.19 102.41, 164.57 106.17, 150.63 108.78 C136.69 111.39, 119.91 113, 104.73 112.75 C89.56 112.5, 72.85 110.48, 59.57 107.28 C46.29 104.07, 34.23 99.62, 25.04 93.54 C15.86 87.45, 8.44 78.5, 4.45 70.75 C0.46 63.01, -1.05 54.49, 1.11 47.06 C3.27 39.62, 9.2 32.34, 17.43 26.16 C25.67 19.98, 38.03 14.12, 50.52 9.97 C63 5.82, 76.84 2.39, 92.34 1.26 C107.85 0.14, 134.4 2.65, 143.57 3.23 C152.75 3.81, 147.82 3.9, 147.38 4.76 M149.26 4.66 C163.31 6.3, 178.48 10.57, 189.01 16.05 C199.54 21.52, 207.23 30.2, 212.43 37.52 C217.63 44.83, 221.2 52.3, 220.23 59.94 C219.25 67.57, 213.39 76.3, 206.56 83.33 C199.72 90.37, 190.77 97.46, 179.22 102.15 C167.66 106.83, 151.61 109.63, 137.23 111.43 C122.85 113.23, 107.68 114.35, 92.93 112.93 C78.18 111.52, 61.6 107.29, 48.72 102.93 C35.85 98.58, 23.43 92.91, 15.68 86.8 C7.94 80.7, 4.32 73.84, 2.25 66.29 C0.17 58.74, -0.61 48.91, 3.23 41.51 C7.08 34.11, 15.51 27.65, 25.33 21.87 C35.15 16.09, 48.73 10.51, 62.15 6.85 C75.57 3.19, 91.18 0.28, 105.85 -0.09 C120.51 -0.46, 142.99 3.62, 150.14 4.62 C157.29 5.63, 149.35 5.33, 148.74 5.94" stroke="#000000" stroke-width="1" fill="none"></path></g><g stroke-linecap="round"><g transform="translate(103.6000366210938 310.0000762939453) rotate(0 -14.662483278982052 20.86955826652229)"><path d="M1.1 -0.69 C-6.47 1.28, -46.59 5.72, -44.44 12.91 C-42.29 20.09, 4.1 37.8, 14 42.43 M0.22 1.56 C-7.63 3.72, -48.31 4.77, -45.61 11.26 C-42.91 17.75, 6.27 35.49, 16.42 40.51" stroke="#000000" stroke-width="1" fill="none"></path></g><g transform="translate(103.6000366210938 310.0000762939453) rotate(0 -14.662483278982052 20.86955826652229)"><path d="M-14.7 38.31 C-0.67 37.79, 10.5 40.01, 14.9 41.01 M-13.51 39.65 C-3.96 38.93, 6.75 40.44, 15.63 39.9" stroke="#000000" stroke-width="1" fill="none"></path></g><g transform="translate(103.6000366210938 310.0000762939453) rotate(0 -14.662483278982052 20.86955826652229)"><path d="M-6.75 19.39 C4.44 26.12, 12.6 35.51, 14.9 41.01 M-5.55 20.74 C1.29 26.18, 9.42 33.83, 15.63 39.9" stroke="#000000" stroke-width="1" fill="none"></path></g></g><g transform="translate(41.19998168945318 395.3999786376953) rotate(0 97.5 12.5)"><text x="0" y="18" font-family="Virgil, Segoe UI Emoji" font-size="20px" fill="#000000" text-anchor="start" style="white-space: pre;" direction="ltr">Down Payment 50%</text></g><g stroke-linecap="round" transform="translate(255.59994506835943 361.19996643066406) rotate(0 140.79995727539062 66.80000305175781)"><path d="M126.12 0.29 C141.73 -1.56, 160.91 -0.22, 177.36 2 C193.81 4.21, 211.21 8.82, 224.81 13.57 C238.42 18.32, 249.85 23.76, 258.98 30.51 C268.11 37.25, 276.1 45.99, 279.59 54.03 C283.08 62.07, 283.04 71.02, 279.91 78.74 C276.78 86.46, 269.72 93.56, 260.81 100.33 C251.89 107.09, 239.63 114.24, 226.43 119.34 C213.23 124.44, 197.86 128.73, 181.59 130.91 C165.31 133.09, 145.87 133.07, 128.78 132.42 C111.7 131.76, 94.07 130.24, 79.08 126.98 C64.09 123.71, 50.27 118.57, 38.84 112.82 C27.42 107.08, 17.07 99.98, 10.53 92.5 C3.98 85.01, -0.27 76.11, -0.42 67.89 C-0.56 59.67, 3.57 50.87, 9.65 43.18 C15.74 35.48, 25.06 27.76, 36.08 21.71 C47.09 15.65, 60.07 10.35, 75.73 6.85 C91.39 3.36, 120.09 1.66, 130.04 0.75 C139.99 -0.16, 135.29 0.45, 135.45 1.38 M191.06 5.7 C206.74 7.5, 222.9 12.68, 235.42 17.66 C247.94 22.63, 258.54 28.55, 266.2 35.55 C273.86 42.55, 279.8 51.42, 281.36 59.65 C282.92 67.88, 280.05 77.03, 275.56 84.92 C271.06 92.81, 264.44 100.8, 254.39 106.99 C244.34 113.19, 229.83 117.76, 215.26 122.1 C200.68 126.44, 183.51 131.56, 166.94 133.05 C150.38 134.53, 132.49 132.81, 115.86 131.02 C99.23 129.23, 81.68 126.34, 67.17 122.3 C52.65 118.27, 38.88 112.78, 28.75 106.8 C18.62 100.81, 10.85 93.99, 6.37 86.39 C1.89 78.79, 0.47 69.31, 1.87 61.19 C3.27 53.07, 7.23 44.74, 14.78 37.66 C22.32 30.58, 34.47 24.02, 47.14 18.7 C59.81 13.38, 75 8.7, 90.77 5.74 C106.55 2.78, 125.02 1.32, 141.78 0.93 C158.55 0.54, 183.39 2.54, 191.35 3.42 C199.31 4.29, 190.23 5.16, 189.53 6.19" stroke="#000000" stroke-width="1" fill="none"></path></g><g stroke-linecap="round"><g transform="translate(179.004488407084 355.69501959801437) rotate(0 113.92981885630883 -20.437721083524508)"><path d="M-0.61 0.36 C35.29 -7.1, 180.83 -44.33, 214.29 -43.62 C247.76 -42.91, 202.86 -3.26, 200.2 4.62 M1.28 -0.5 C37.66 -7.8, 183.51 -46, 216.64 -45.5 C249.77 -45, 203.11 -5.84, 200.05 2.51" stroke="#000000" stroke-width="1" fill="none"></path></g><g transform="translate(179.004488407084 355.69501959801437) rotate(0 113.92981885630883 -20.437721083524508)"><path d="M208.82 -22.75 C207.53 -14.62, 205.73 -12.65, 199.24 4.29 M207.53 -20.8 C206.22 -15.76, 204.2 -10.42, 200.01 2.64" stroke="#000000" stroke-width="1" fill="none"></path></g><g transform="translate(179.004488407084 355.69501959801437) rotate(0 113.92981885630883 -20.437721083524508)"><path d="M222.39 -11.86 C218.15 -6.08, 213.52 -6.39, 199.24 4.29 M221.1 -9.91 C216.93 -7.06, 212.05 -4.02, 200.01 2.64" stroke="#000000" stroke-width="1" fill="none"></path></g></g><g transform="translate(326.0000305175782 375.40000915527344) rotate(0 71.5 12.5)"><text x="0" y="18" font-family="Virgil, Segoe UI Emoji" font-size="20px" fill="#000000" text-anchor="start" style="white-space: pre;" direction="ltr">Code and your</text></g><g transform="translate(332.39987182617193 404.1999053955078) rotate(0 55 12.5)"><text x="0" y="18" font-family="Virgil, Segoe UI Emoji" font-size="20px" fill="#000000" text-anchor="start" style="white-space: pre;" direction="ltr">website will</text></g><g transform="translate(315.59994506835943 429.00001525878906) rotate(0 84 12.5)"><text x="0" y="18" font-family="Virgil, Segoe UI Emoji" font-size="20px" fill="#000000" text-anchor="start" style="white-space: pre;" direction="ltr">be release after</text></g><g transform="translate(313.1998596191407 456.2000274658203) rotate(0 81.5 12.5)"><text x="0" y="18" font-family="Virgil, Segoe UI Emoji" font-size="20px" fill="#000000" text-anchor="start" style="white-space: pre;" direction="ltr">the full payment</text></g><g stroke-linecap="round" transform="translate(557.1999206542969 337.99998474121094) rotate(0 154.80001831054688 73.19999694824219)"><path d="M130.51 1.4 C146.79 -0.83, 168.11 0.21, 185.63 1.61 C203.15 3.01, 220.65 5.37, 235.63 9.8 C250.61 14.23, 264.46 21.48, 275.49 28.19 C286.52 34.9, 296.21 42.21, 301.8 50.07 C307.39 57.92, 309.4 66.98, 309.04 75.31 C308.68 83.64, 305.85 92.21, 299.65 100.04 C293.45 107.87, 283.59 116.02, 271.83 122.31 C260.06 128.59, 244.8 133.93, 229.06 137.75 C213.33 141.57, 194.84 144.13, 177.44 145.23 C160.04 146.34, 141.73 146.08, 124.68 144.38 C107.62 142.68, 90.13 139.34, 75.11 135.02 C60.1 130.71, 45.87 124.87, 34.58 118.5 C23.3 112.13, 13.26 104.61, 7.4 96.81 C1.54 89.02, -1.24 80.25, -0.56 71.74 C0.11 63.23, 4.92 53.55, 11.45 45.78 C17.98 38.01, 27.12 31.32, 38.62 25.12 C50.13 18.92, 63.24 12.77, 80.46 8.59 C97.67 4.41, 129.86 1.37, 141.91 0.03 C153.96 -1.31, 152.62 -0.81, 152.76 0.53 M213.75 5.07 C230.08 7.11, 245.94 13.82, 259.09 19.7 C272.23 25.59, 284.15 32.84, 292.61 40.4 C301.07 47.96, 307.52 56.79, 309.85 65.07 C312.17 73.35, 310.88 82.07, 306.58 90.06 C302.27 98.04, 293.82 105.88, 284.03 112.97 C274.24 120.07, 261.73 127.64, 247.83 132.62 C233.94 137.6, 217.51 140.4, 200.65 142.87 C183.78 145.34, 164.12 147.65, 146.63 147.45 C129.14 147.25, 111.85 145.08, 95.69 141.66 C79.53 138.24, 63.03 132.66, 49.69 126.93 C36.34 121.21, 23.75 114.67, 15.64 107.3 C7.53 99.92, 3.09 91.04, 1.04 82.69 C-1.01 74.35, -0.44 65.62, 3.34 57.22 C7.11 48.83, 14.25 39.37, 23.69 32.32 C33.12 25.27, 45.74 19.54, 59.96 14.93 C74.18 10.32, 91.81 7.3, 109.01 4.65 C126.21 2.01, 145.35 -1, 163.17 -0.93 C180.99 -0.87, 207.74 3.59, 215.93 5.05 C224.12 6.5, 213.51 6.74, 212.32 7.81" stroke="#000000" stroke-width="1" fill="none"></path></g><g transform="translate(594.8000793457031 372.9999542236328) rotate(0 113.5 12.5)"><text x="0" y="18" font-family="Virgil, Segoe UI Emoji" font-size="20px" fill="#000000" text-anchor="start" style="white-space: pre;" direction="ltr">All the files and codes</text></g><g transform="translate(621.1999816894531 404.9999542236328) rotate(0 95.5 25)"><text x="0" y="17" font-family="Virgil, Segoe UI Emoji" font-size="20px" fill="#000000" text-anchor="start" style="white-space: pre;" direction="ltr">will be sent to you.</text><text x="0" y="42" font-family="Virgil, Segoe UI Emoji" font-size="20px" fill="#000000" text-anchor="start" style="white-space: pre;" direction="ltr">Thank you.</text></g><g stroke-linecap="round" transform="translate(16.399902343750057 10) rotate(0 44.5 30)"><path d="M0.71 -1.78 C19.38 1.71, 36.44 1.25, 88.26 -1.81 M0.77 -0.39 C28.77 1.26, 56.22 0.21, 88.32 -0.23 M89.16 0.84 C89.66 17.86, 89.96 36.08, 87.34 58.81 M89.49 -0.17 C90.42 14.32, 89.32 25.96, 88.53 60.17 M89.79 60.48 C56.22 61.29, 20.74 60.14, 1.84 60.2 M89.75 60.77 C60.13 59.94, 32.9 59.66, 0.64 60.64 M-1.6 59.91 C1.3 46.08, -0.25 31.42, -1.37 -1.24 M-0.05 59.85 C0.29 42.1, -0.51 23.07, 0.78 0" stroke="#000000" stroke-width="1" fill="none"></path></g><g transform="translate(26.399902343750057 15) rotate(0 34 25)"><text x="34" y="18" font-family="Virgil, Segoe UI Emoji" font-size="20px" fill="#000000" text-anchor="middle" style="white-space: pre;" direction="ltr">Start </text><text x="34" y="43" font-family="Virgil, Segoe UI Emoji" font-size="20px" fill="#000000" text-anchor="middle" style="white-space: pre;" direction="ltr">Here</text></g><g stroke-linecap="round"><g transform="translate(40.39990234375006 78.79998779296875) rotate(0 15.902286483191574 27.199029224430888)"><path d="M-0.97 -0.57 C-3.81 8.24, -24.98 45.01, -16.32 52.26 C-7.66 59.5, 40.05 44.34, 51.02 42.89 M0.72 1.74 C-2.36 10.76, -25.74 47, -17.44 53.51 C-9.13 60.02, 39.46 42.79, 50.57 40.81" stroke="#000000" stroke-width="1" fill="none"></path></g><g transform="translate(40.39990234375006 78.79998779296875) rotate(0 15.902286483191574 27.199029224430888)"><path d="M25.06 57.51 C34.01 53.08, 44.54 44.32, 52.51 42.05 M26.03 57.35 C32 53.36, 38.21 49.77, 50.86 40.4" stroke="#000000" stroke-width="1" fill="none"></path></g><g transform="translate(40.39990234375006 78.79998779296875) rotate(0 15.902286483191574 27.199029224430888)"><path d="M19.73 37.69 C30.49 40.42, 42.93 38.76, 52.51 42.05 M20.7 37.53 C28 38.3, 35.5 39.5, 50.86 40.4" stroke="#000000" stroke-width="1" fill="none"></path></g></g><g stroke-linecap="round" transform="translate(849.1999816894531 326.0000762939453) rotate(0 46 18.800003051757812)"><path d="M-0.99 -0.79 C27.79 -2, 54.56 -0.4, 90.66 -1.15 M-0.8 -0.19 C26.14 1.06, 52.59 -0.53, 91.87 0.84 M90.28 -1.37 C93.26 11.95, 93.83 20.39, 93.31 38.97 M92.62 -0.76 C92.93 12.1, 92.87 25.66, 91.51 38.51 M90.27 39.6 C55.95 34.8, 23 35.18, -0.73 39.36 M92.36 37.6 C73.56 37.13, 53.87 37.83, 0.41 37.94 M0.37 37.62 C-0.15 25.98, 2.09 16.75, 1.98 1.33 M0.26 36.9 C0.46 27.37, -1.08 14.96, 0.64 -0.76" stroke="#000000" stroke-width="1" fill="none"></path></g><g transform="translate(877.1999816894531 332.3000793457031) rotate(0 18 12.5)"><text x="18" y="18" font-family="Virgil, Segoe UI Emoji" font-size="20px" fill="#000000" text-anchor="middle" style="white-space: pre;" direction="ltr">End</text></g><g stroke-linecap="round"><g transform="translate(491.6497966082 483.56964970340607) rotate(0 49.866845439713416 -1.8326276270851167)"><path d="M0.16 -0.68 C0.68 -2.51, -5.6 -12.59, 3.62 -10.62 C12.84 -8.65, 39.07 11.86, 55.49 11.16 C71.91 10.46, 94.47 -10.32, 102.14 -14.84 M-1.21 1.58 C-0.86 -0.17, -6.43 -10.91, 2.92 -9.64 C12.27 -8.37, 38.34 9.86, 54.9 9.2 C71.46 8.55, 94.21 -9.36, 102.27 -13.57" stroke="#000000" stroke-width="1" fill="none"></path></g><g transform="translate(491.6497966082 483.56964970340607) rotate(0 49.866845439713416 -1.8326276270851167)"><path d="M84.6 8.36 C89.62 0.83, 98.29 -7.38, 102.82 -14.96 M86.21 8.22 C89.37 3.38, 92.73 -1.35, 102.63 -13.77" stroke="#000000" stroke-width="1" fill="none"></path></g><g transform="translate(491.6497966082 483.56964970340607) rotate(0 49.866845439713416 -1.8326276270851167)"><path d="M74.88 -7.22 C83.3 -9.39, 95.32 -12.23, 102.82 -14.96 M76.49 -7.36 C82.01 -8.53, 87.62 -9.65, 102.63 -13.77" stroke="#000000" stroke-width="1" fill="none"></path></g></g><g stroke-linecap="round"><g transform="translate(805.1999816894531 350.7999725341797) rotate(0 18.141426495476594 -11.407903917283534)"><path d="M0.41 -0.06 C3.62 -3.47, 14.22 -18.73, 20.34 -20.52 C26.46 -22.3, 34.26 -12.18, 37.11 -10.78 M-0.83 -1.14 C2.23 -4.92, 13.84 -20.53, 19.99 -22.49 C26.15 -24.45, 33.16 -14.74, 36.09 -12.91" stroke="#000000" stroke-width="1" fill="none"></path></g><g transform="translate(805.1999816894531 350.7999725341797) rotate(0 18.141426495476594 -11.407903917283534)"><path d="M26.41 -15.81 C30.46 -15.73, 34.32 -13.94, 35.29 -13.57 M26.73 -16.77 C29.79 -15.23, 33.99 -14.04, 36.43 -12.46" stroke="#000000" stroke-width="1" fill="none"></path></g><g transform="translate(805.1999816894531 350.7999725341797) rotate(0 18.141426495476594 -11.407903917283534)"><path d="M31.16 -21.08 C33.35 -18.94, 35.37 -15.1, 35.29 -13.57 M31.48 -22.05 C32.64 -18.45, 35.01 -15.22, 36.43 -12.46" stroke="#000000" stroke-width="1" fill="none"></path></g></g></svg>